<?xml version="1.0" standalone="no"?>
<!DOCTYPE svg PUBLIC "-//W3C//DTD SVG 20010904//EN"
 "http://www.w3.org/TR/2001/REC-SVG-20010904/DTD/svg10.dtd">
<svg version="1.0" xmlns="http://www.w3.org/2000/svg"
 width="605.000000pt" height="605.000000pt" viewBox="0 0 605.000000 605.000000"
 preserveAspectRatio="xMidYMid meet">
<metadata>
Created by potrace 1.11, written by Peter Selinger 2001-2013
</metadata>
<g transform="translate(0.000000,605.000000) scale(0.100000,-0.100000)"
fill="#000000" stroke="none">
<path d="M2825 6040 c-621 -41 -1199 -264 -1686 -651 -135 -107 -374 -346
-479 -479 -240 -303 -421 -648 -534 -1021 -39 -131 -87 -362 -108 -519 -16
-131 -16 -503 1 -660 105 -952 634 -1779 1458 -2278 339 -205 769 -351 1193
-404 156 -19 582 -16 740 6 540 75 1016 272 1450 601 600 454 1017 1151 1140
1904 27 170 43 377 38 492 -8 156 -55 221 -188 255 -148 38 -378 -6 -945 -181
-538 -166 -748 -221 -994 -260 -317 -49 -592 -18 -769 87 -91 55 -192 162
-240 254 -78 153 -108 319 -99 549 13 305 58 518 263 1228 145 504 177 657
172 823 -3 114 -5 123 -33 169 -54 87 -122 102 -380 85z"/>
</g>
</svg>
