<svg xmlns="http://www.w3.org/2000/svg" width="810.2" height="149" viewBox="0 0 810.2 149">
  <g id="Grupo_1" data-name="Grupo 1" transform="translate(-271 -451)">
    <path id="Trazado_3" data-name="Trazado 3" d="M59,2.8c29.4,0,53-23,53-52.8s-23.6-52.8-53-52.8S6-79.8,6-50,29.6,2.8,59,2.8Zm0-29.2c-13,0-23-9.4-23-23.6S46-73.6,59-73.6,82-64.2,82-50,72-26.4,59-26.4ZM159-82.2V-100H129V0h30V-45.2C159-65,176.6-70,189-68v-34C176.4-102,163-95.6,159-82.2ZM272.6-140v49.4c-6.6-7.6-16.4-12.2-29.8-12.2-26.2,0-47.8,23-47.8,52.8S216.6,2.8,242.8,2.8c13.4,0,23.2-4.6,29.8-12.2V0h30V-140ZM248.8-25.6C235-25.6,225-35,225-50s10-24.4,23.8-24.4S272.6-65,272.6-50,262.6-25.6,248.8-25.6ZM351.4-38h71a58.133,58.133,0,0,0,1.2-12c0-30.2-21.6-52.8-50.8-52.8-31.6,0-53.2,23-53.2,52.8S340.8,2.8,375,2.8c19,0,33.8-7,43.6-20.6l-24-13.8c-4,4.4-11,7.6-19.2,7.6C364.4-24,355.2-27.6,351.4-38Zm-.6-22.4c2.8-10.2,10.4-15.8,21.8-15.8,9,0,18,4.2,21.2,15.8ZM470.6-82.2V-100h-30V0h30V-45.2c0-19.8,17.6-24.8,30-22.8v-34C488-102,474.6-95.6,470.6-82.2Zm59-26.6a18.184,18.184,0,0,0,18-18,18.184,18.184,0,0,0-18-18,18.184,18.184,0,0,0-18,18A18.184,18.184,0,0,0,529.6-108.8ZM514.6,0h30V-100h-30ZM625.2-71.2V-100H604.6v-28l-30,9v19h-16v28.8h16v35.4C574.6-7.8,586,4,625.2,0V-27.2c-13.2.8-20.6,0-20.6-8.6V-71.2Z" transform="translate(456 597)" fill="#ef684a"/>
    <path id="Trazado_8" data-name="Trazado 8" d="M74.5,0A74.5,74.5,0,1,1,0,74.5,74.5,74.5,0,0,1,74.5,0Z" transform="translate(271 451)" fill="#fccbba"/>
    <path id="Trazado_9" data-name="Trazado 9" d="M74.5,0c19.174,0-18.625,55.875,0,74.5s74.5-21.972,74.5,0A74.5,74.5,0,1,1,74.5,0Z" transform="translate(271 451)" fill="#ffd3c4"/>
    <path id="Trazado_10" data-name="Trazado 10" d="M74.5,0c19.174,0-18.625,55.875,0,74.5s74.5-21.972,74.5,0A74.5,74.5,0,1,1,74.5,0Z" transform="translate(271 451)" fill="#ef684a"/>
  </g>
</svg>
